#!OML:ASF F:\VICON\USERDATA\INSTALL\Justin_Nancy\Justin_Nancy.ASF
:FULLY-SPECIFIED
:DEGREES
222
root 0.296771 17.5079 -2.71569 -0.625968 1.06517 -1.20011
lowerback 3.28554 0.0973548 0.259382
upperback -0.611558 0.212324 2.93372
thorax -2.48205 0.123944 2.86254
lowerneck -15.4965 -5.4167 -10.4348
upperneck 23.1101 -6.59692 6.71624
head 10.5568 -3.1822 3.22896
rclavicle 4.67144e-015 1.11319e-014
rhumerus -20.935 -4.03272 -81.975
rradius 41.3716
rwrist 0.61845
rhand -17.918 14.3841
rfingers 7.12502
rthumb 8.34951 -15.4309
lclavicle 4.67144e-015 1.11319e-014
lhumerus -33.9984 12.4278 85.2197
lradius 19.3868
lwrist -16.7581
lhand -10.996 28.6654
lfingers 7.12502
lthumb 15.0244 58.1003
rfemur -9.77409 5.63006 26.7167
rtibia 29.1657
rfoot -13.3343 -7.69553
rtoes 2.11973
lfemur -13.2902 -4.68694 -20.5967
ltibia 33.7701
lfoot -15.6691 7.65668
ltoes 2.70739
223
root 0.296576 17.5052 -2.68808 -0.572757 1.24893 -0.911846
lowerback 3.31642 0.0172953 -0.0636714
upperback -0.735294 0.0908897 2.75173
thorax -2.62102 0.068428 2.86365
lowerneck -15.4275 -5.54754 -10.3351
upperneck 23.0308 -6.86282 6.89935
head 10.5432 -3.27575 3.23933
rclavicle -5.80203e-015 -7.95139e-016
rhumerus -21.2862 -4.64172 -82.2247
rradius 41.2847
rwrist 0.934138
rhand -18.0961 13.9105
rfingers 7.12502
rthumb 8.17759 -15.9113
lclavicle -5.80203e-015 -7.95139e-016
lhumerus -33.9848 12.4278 84.8758
lradius 19.1218
lwrist -17.1937
lhand -10.8651 28.8071
lfingers 7.12502
lthumb 15.1505 58.2325
rfemur -9.85179 5.69318 26.4325
rtibia 29.4502
rfoot -13.5931 -7.98614
rtoes 1.94016
lfemur -13.1689 -4.29103 -20.8538
ltibia 33.5049
lfoot -15.6264 7.16828
ltoes 2.92359
224
root 0.297839 17.5071 -2.66217 -0.453207 1.46537 -0.697033
lowerback 3.25957 -0.0583493 -0.333469
upperback -0.842852 -0.02258 2.6523
thorax -2.69401 0.016608 2.91955
lowerneck -15.2043 -5.69138 -10.3661
upperneck 22.7782 -7.10921 7.05157
head 10.4401 -3.37818 3.26355
rclavicle 7.79609e-015 -3.73715e-014
rhumerus -21.5669 -5.16159 -82.3248
rradius 41.1118
rwrist 1.07921
rhand -18.2448 13.7987
rfingers 7.12502
rthumb 8.03408 -16.0286
lclavicle 7.79609e-015 -3.73715e-014
lhumerus -33.9588 12.5439 84.6514
lradius 18.9607
lwrist -17.5279
lhand -10.977 29.1516
lfingers 7.12502
lthumb 15.0427 58.5851
rfemur -9.97035 5.71197 26.1994
rtibia 29.6504
rfoot -13.7255 -8.23658
rtoes 2.02061
lfemur -13.118 -4.17977 -21.0299
ltibia 33.3093
lfoot -15.6165 6.85518
ltoes 3.58263
225
root 0.294544 17.5097 -2.63232 -0.365183 1.59939 -0.58741
lowerback 3.09291 -0.109096 -0.584495
upperback -0.799334 -0.103793 2.63519
thorax -2.55075 -0.0216924 3.04661
lowerneck -15.1977 -5.87152 -10.5143
upperneck 22.4936 -7.35144 7.21036
head 10.3732 -3.48333 3.3058
rclavicle 4.7025e-015 6.36111e-015
rhumerus -21.636 -5.86593 -82.3821
rradius 40.8369
rwrist 1.32769
rhand -18.0858 13.7105
rfingers 7.12502
rthumb 8.18751 -16.1109
lclavicle 4.7025e-015 6.36111e-015
lhumerus -33.5467 12.7894 84.539
lradius 18.7622
lwrist -17.9389
lhand -10.6143 29.4573
lfingers 7.12502
lthumb 15.3921 58.8644
rfemur -10.0173 5.94538 26.1314
rtibia 29.7549
rfoot -13.7903 -8.68435
rtoes 1.7128
lfemur -13.0919 -4.15711 -21.0749
ltibia 33.1704
lfoot -15.633 6.37388
ltoes 3.6857
226
root 0.29503 17.5099 -2.60001 -0.399151 1.77423 -0.549551
lowerback 2.87266 -0.17462 -0.683935
upperback -0.687925 -0.199811 2.60001
thorax -2.30643 -0.0717841 3.06887
lowerneck -15.0374 -5.98823 -10.5623
upperneck 22.106 -7.53046 7.33555
head 10.2283 -3.55825 3.33059
rclavicle 2.59662e-015 -3.18055e-015
rhumerus -21.934 -6.57552 -82.4833
rradius 40.7972
rwrist 1.39909
rhand -18.0692 13.2177
rfingers 7.12502
rthumb 8.20356 -16.6031
lclavicle 2.59662e-015 -3.18055e-015
lhumerus -33.15 13.0551 84.398
lradius 18.692
lwrist -18.3433
lhand -10.0232 29.6066
lfingers 7.12502
lthumb 15.9613 58.969
rfemur -9.87459 6.04243 26.125
rtibia 29.7755
rfoot -13.9095 -8.92548
rtoes 1.80659
lfemur -12.9104 -3.9878 -21.0814
ltibia 33.0456
lfoot -15.7019 5.94224
ltoes 3.78865
227
root 0.305459 17.5106 -2.5717 -0.339958 2.0871 -0.583581
lowerback 2.70391 -0.29765 -0.59624
upperback -0.717451 -0.361454 2.60324
thorax -2.23294 -0.154188 3.02905
lowerneck -14.7238 -6.09558 -10.6454
upperneck 21.712 -7.67169 7.33853
head 10.0462 -3.6363 3.3263
rclavicle -4.46023e-015 3.49861e-014
rhumerus -22.3493 -7.17397 -82.5084
rradius 40.702
rwrist 1.34601
rhand -18.1343 12.7629
rfingers 7.12502
rthumb 8.14075 -17.0603
lclavicle -4.46023e-015 3.49861e-014
lhumerus -33.0306 13.3029 84.3092
lradius 18.8027
lwrist -18.5606
lhand -10.122 29.3999
lfingers 7.12502
lthumb 15.8661 58.7698
rfemur -9.80641 5.77994 26.1103
rtibia 29.7087
rfoot -14.0705 -8.90899
rtoes 2.28165
lfemur -12.8668 -3.80516 -21.0535
ltibia 32.9754
lfoot -15.6242 5.62574
ltoes 3.58422
228
root 0.316792 17.5103 -2.54392 -0.379615 2.29416 -0.694191
lowerback 2.71633 -0.382654 -0.441874
upperback -0.76118 -0.467745 2.6323
thorax -2.27979 -0.208419 2.97737
lowerneck -14.6169 -6.23521 -10.7121
upperneck 21.588 -7.84868 7.30576
head 10.0019 -3.7293 3.30039
rclavicle -6.34247e-015 2.3059e-014
rhumerus -22.7898 -7.747 -82.4825
rradius 40.4408
rwrist 1.32327
rhand -17.9557 12.7143
rfingers 7.12502
rthumb 8.3131 -17.1021
lclavicle -6.34247e-015 2.3059e-014
lhumerus -33.0281 13.3285 84.2905
lradius 19.0764
lwrist -18.6233
lhand -10.1875 29.3904
lfingers 7.12502
lthumb 15.803 58.7654
rfemur -9.52978 5.58014 26.2022
rtibia 29.57
rfoot -14.2092 -8.90598
rtoes 2.69107
lfemur -12.7529 -3.76378 -20.9704
ltibia 32.9663
lfoot -15.718 5.489
ltoes 3.30669
229
root 0.326878 17.5085 -2.51356 -0.510224 2.21003 -0.979755
lowerback 2.70499 -0.362449 -0.113354
upperback -0.703732 -0.42895 2.69434
thorax -2.21833 -0.194019 2.85385
lowerneck -14.6897 -6.35447 -10.7561
upperneck 21.4936 -7.99452 7.31278
head 9.99961 -3.79744 3.28597
rclavicle 1.88224e-015 1.35174e-014
rhumerus -23.1756 -8.34751 -82.492
rradius 40.2472
rwrist 1.29498
rhand -17.7703 12.8545
rfingers 7.12502
rthumb 8.49202 -16.9547
lclavicle 1.88224e-015 1.35174e-014
lhumerus -32.8859 12.609 84.6031
lradius 19.5115
lwrist -17.9435
lhand -10.157 29.6856
lfingers 7.12502
lthumb 15.8324 59.0583
rfemur -9.13992 5.64749 26.517
rtibia 29.4053
rfoot -14.2781 -8.95002
rtoes 2.38753
lfemur -12.4933 -3.66162 -20.7051
ltibia 32.9692
lfoot -15.9943 5.42177
ltoes 3.09738
230
root 0.333666 17.5092 -2.49115 -0.54463 2.1437 -1.08613
lowerback 2.72742 -0.308503 0.0164278
upperback -0.6662 -0.353249 2.67443
thorax -2.197 -0.158454 2.75659
lowerneck -14.7003 -6.47225 -10.8963
upperneck 21.3064 -8.18355 7.59648
head 9.97374 -3.86461 3.3802
rclavicle 8.07563e-016 -2.14687e-014
rhumerus -23.4236 -9.09318 -82.5145
rradius 39.8527
rwrist 1.33631
rhand -17.6846 12.8459
rfingers 7.12502
rthumb 8.57476 -16.96
lclavicle 8.07563e-016 -2.14687e-014
lhumerus -32.6947 11.7108 84.9458
lradius 19.9386
lwrist -16.9899
lhand -10.4203 29.7193
lfingers 7.12502
lthumb 15.5789 59.1119
rfemur -8.94244 5.69728 26.6348
rtibia 29.2343
rfoot -14.2121 -9.05626
rtoes 1.66194
lfemur -12.3274 -3.59365 -20.6338
ltibia 32.9501
lfoot -16.079 5.49167
ltoes 3.29124
231
root 0.343545 17.5133 -2.46988 -0.51458 2.29543 -0.98145
lowerback 2.73413 -0.315492 0.0366004
upperback -0.635635 -0.364855 2.56069
thorax -2.16949 -0.165638 2.62806
lowerneck -14.6407 -6.58579 -11.0232
upperneck 20.9628 -8.37046 7.89744
head 9.88005 -3.92969 3.47856
rclavicle 1.15047e-014 -1.11319e-014
rhumerus -23.7465 -9.73614 -82.5713
rradius 39.4352
rwrist 1.2933
rhand -17.8219 12.9654
rfingers 7.12502
rthumb 8.44219 -16.8459
lclavicle 1.15047e-014 -1.11319e-014
lhumerus -32.3979 11.2068 85.0928
lradius 20.0835
lwrist -16.377
lhand -11.0547 28.746
lfingers 7.12502
lthumb 14.9678 58.1851
rfemur -8.83882 5.50543 26.478
rtibia 29.0774
rfoot -14.2102 -9.0249
rtoes 1.79626
lfemur -12.2081 -3.69107 -20.8089
ltibia 32.8865
lfoot -16.0805 5.55339
ltoes 3.74442
232
root 0.354656 17.5162 -2.44274 -0.487747 2.43059 -0.805413
lowerback 2.61731 -0.332914 0.0120512
upperback -0.577429 -0.394812 2.42066
thorax -2.04331 -0.182315 2.49713
lowerneck -14.6576 -6.68829 -10.88
upperneck 20.6026 -8.51361 7.8529
head 9.76208 -3.98861 3.41423
rclavicle -2.71465e-015 7.15625e-015
rhumerus -24.1496 -10.1775 -82.6438
rradius 39.0779
rwrist 1.2465
rhand -17.8675 12.8228
rfingers 7.12502
rthumb 8.39822 -16.9903
lclavicle -2.71465e-015 7.15625e-015
lhumerus -31.9539 10.7892 85.1651
lradius 20.1406
lwrist -16.1671
lhand -11.3102 27.7484
lfingers 7.12502
lthumb 14.7216 57.2057
rfemur -8.70697 5.44925 26.2611
rtibia 28.9919
rfoot -14.2538 -9.13457
rtoes 1.68731
lfemur -12.0342 -3.74869 -21.07
ltibia 32.7584
lfoot -16.2081 5.57784
ltoes 3.60891
233
root 0.366011 17.5168 -2.41274 -0.484286 2.54428 -0.73589
lowerback 2.49725 -0.381065 0.0199608
upperback -0.588841 -0.460988 2.38292
thorax -1.98505 -0.21599 2.45545
lowerneck -14.5436 -6.76235 -10.9462
upperneck 20.3639 -8.61083 7.905
head 9.67291 -4.03624 3.42974
rclavicle 8.57259e-016 9.54166e-015
rhumerus -24.512 -10.5751 -82.587
rradius 38.3873
rwrist 1.52559
rhand -17.5785 13.2647
rfingers 7.12502
rthumb 8.67715 -16.537
lclavicle 8.57259e-016 9.54166e-015
lhumerus -31.6808 10.6417 85.2014
lradius 20.301
lwrist -16.3029
lhand -11.0779 27.7524
lfingers 7.12502
lthumb 14.9454 57.1932
rfemur -8.55429 5.36366 26.1627
rtibia 28.9819
rfoot -14.4688 -9.18327
rtoes 2.35405
lfemur -11.8239 -3.75492 -21.2123
ltibia 32.6044
lfoot -16.3099 5.57165
ltoes 3.44079
234
root 0.379022 17.518 -2.38492 -0.453666 2.66164 -0.631207
lowerback 2.50124 -0.438918 -0.00705991
upperback -0.732466 -0.536936 2.34142
thorax -2.13176 -0.252174 2.43233
lowerneck -14.2969 -6.76675 -11.0745
upperneck 20.2896 -8.6334 8.00872
head 9.61448 -4.05241 3.48934
rclavicle -4.7522e-015 1.03368e-014
rhumerus -25.0708 -10.7808 -82.5014
rradius 37.6287
rwrist 1.60229
rhand -17.5749 13.8119
rfingers 7.12502
rthumb 8.68061 -15.9896
lclavicle -4.7522e-015 1.03368e-014
lhumerus -31.7569 10.1319 85.3471
lradius 20.7951
lwrist -15.7329
lhand -10.4976 28.2781
lfingers 7.12502
lthumb 15.5044 57.6764
rfemur -8.42876 5.11065 26.0036
rtibia 29.0182
rfoot -14.6818 -9.10883
rtoes 2.67546
lfemur -11.6895 -3.7785 -21.4017
ltibia 32.4512
lfoot -16.2097 5.6578
ltoes 3.18504
235
root 0.389304 17.5131 -2.36448 -0.38475 2.64424 -0.592538
lowerback 2.51839 -0.437181 -0.0521325
upperback -0.857349 -0.532824 2.36924
thorax -2.26934 -0.247732 2.48757
lowerneck -14.0486 -6.79323 -11.2761
upperneck 20.177 -8.66677 8.11042
head 9.54738 -4.07936 3.55826
rclavicle 4.84538e-016 1.11319e-014
rhumerus -25.5549 -10.8666 -82.4027
rradius 37.0312
rwrist 1.63129
rhand -17.498 13.5622
rfingers 7.12502
rthumb 8.75478 -16.2362
lclavicle 4.84538e-016 1.11319e-014
lhumerus -31.6813 9.58475 85.6155
lradius 21.1988
lwrist -14.8159
lhand -10.4771 28.6252
lfingers 7.12502
lthumb 15.5242 58.0221
rfemur -8.44631 5.09606 25.9338
rtibia 29.083
rfoot -14.7831 -9.167
rtoes 2.47552
lfemur -11.5968 -3.97021 -21.4964
ltibia 32.3346
lfoot -16.1915 5.87842
ltoes 3.337
236
root 0.396787 17.5115 -2.34475 -0.271074 2.48961 -0.481128
lowerback 2.59023 -0.380812 -0.173614
upperback -1.03968 -0.458053 2.3429
thorax -2.49988 -0.206118 2.52789
lowerneck -13.6948 -6.8296 -11.3795
upperneck 20.038 -8.7274 8.12251
head 9.44555 -4.12359 3.57808
rclavicle -1.42752e-014 2.38542e-014
rhumerus -26.0505 -10.9856 -82.3577
rradius 36.3772
rwrist 1.89758
rhand -17.0545 13.6262
rfingers 7.12502
rthumb 9.18272 -16.1539
lclavicle -1.42752e-014 2.38542e-014
lhumerus -31.643 9.3908 85.6752
lradius 21.5086
lwrist -14.4196
lhand -10.6879 28.7191
lfingers 7.12502
lthumb 15.3211 58.1315
rfemur -8.54996 5.2549 25.7902
rtibia 29.1606
rfoot -14.768 -9.25205
rtoes 2.2825
lfemur -11.5229 -4.07271 -21.6533
ltibia 32.2316
lfoot -16.3047 6.04323
ltoes 3.39367
